PathFileType	4	(X/Y/Z)	 s03c0103.trc
DataRate	CameraRate	NumFrames	NumMarkers	Units	OrigDataRate	OrigDataStartFrame	OrigNumFrames
200	200	5	50	mm	200	1251	2000
Frame#	Time	racr			lacr			c7			jug			rlel			rdr			llel			ldr			s2			lic			ric			lasi			rasi			rpsi			lpsi			rgt			lgt			rth1			rth2			rth3			rth4			rlfc			rmfc			rsh1			rsh2			rsh3			rsh4			rlmal			rcal			rtoe			rmt5			rmt1			lth1			lth2			lth4			lth3			llfc			lmfc			lsh1			lsh2			lsh3			lsh4			llmal			lcal			ltoe			lmt1			lmt5			SBIKE			LBIKE			RBIKE			
		X1	Y1	Z1	X2	Y2	Z2	X3	Y3	Z3	X4	Y4	Z4	X5	Y5	Z5	X6	Y6	Z6	X7	Y7	Z7	X8	Y8	Z8	X9	Y9	Z9	X10	Y10	Z10	X11	Y11	Z11	X12	Y12	Z12	X13	Y13	Z13	X14	Y14	Z14	X15	Y15	Z15	X16	Y16	Z16	X17	Y17	Z17	X18	Y18	Z18	X19	Y19	Z19	X20	Y20	Z20	X21	Y21	Z21	X22	Y22	Z22	X23	Y23	Z23	X24	Y24	Z24	X25	Y25	Z25	X26	Y26	Z26	X27	Y27	Z27	X28	Y28	Z28	X29	Y29	Z29	X30	Y30	Z30	X31	Y31	Z31	X32	Y32	Z32	X33	Y33	Z33	X34	Y34	Z34	X35	Y35	Z35	X36	Y36	Z36	X37	Y37	Z37	X38	Y38	Z38	X39	Y39	Z39	X40	Y40	Z40	X41	Y41	Z41	X42	Y42	Z42	X43	Y43	Z43	X44	Y44	Z44	X45	Y45	Z45	X46	Y46	Z46	X47	Y47	Z47	X48	Y48	Z48	X49	Y49	Z49	X50	Y50	Z50	
1251	6.2550	487.755000	1381.732127	-142.087578	392.824597	1395.461793	-431.699063	383.199161	1481.965054	-268.313832	372.858400	1305.885479	-276.229348	539.873267	1145.170782	4.236399	742.433992	936.625383	-34.433999	481.113507	1148.476404	-488.472025	725.760512	955.460841	-421.209448	-127.163209	1208.834630	-153.247170	-5.630079	1271.777661	-361.805401	69.412223	1236.617308	1.598345	38.493608	1193.470284	-326.374896	87.439763	1168.254123	-49.447226	-90.176140	1256.617664	-108.472125	-104.977056	1266.091057	-185.034284	3.159745	1108.940447	9.066603	-30.888808	1189.613548	-377.804190	88.888743	970.917110	19.137972	162.410867	920.348130	20.108154	202.313150	844.601869	10.139237	189.453000	944.515349	11.931551	263.620081	733.710368	-23.519670	272.826056	723.795413	-143.048823	201.068495	578.055484	-5.161017	191.832844	491.095407	-24.422415	140.126896	419.823203	-30.553032	220.878170	484.224526	-48.886558	83.928875	302.737185	-61.411839	16.220694	287.327966	-100.157260	294.435182	149.025808	-111.363225	179.947607	180.739490	-38.576000	211.118579	190.912854	-151.021297	95.405040	1121.217862	-426.364741	180.250515	1112.544046	-440.124197	194.950070	1143.879078	-426.976485	251.164629	1059.939824	-454.712999	387.127296	1016.463355	-455.555177	405.022750	998.830263	-324.362831	314.537058	857.668050	-464.009178	303.093913	774.482043	-443.148218	247.573191	704.029535	-433.357941	334.799876	764.087420	-424.252600	195.901988	586.158248	-408.807404	128.515642	544.016099	-358.641205	435.427499	508.049901	-352.653342	340.708945	513.292168	-310.610632	316.330276	494.218086	-425.669071	-217.256349	945.790992	-228.176077	-8.182655	85.045706	-436.266439	-13.833580	80.930569	-35.891994	
1252	6.2600	487.720112	1380.917027	-142.610960	392.475769	1395.663294	-431.824726	383.166586	1481.708270	-268.176032	372.545407	1305.676526	-276.732501	540.001141	1144.478019	3.855913	742.517964	936.263735	-34.333107	480.551112	1148.598401	-488.086947	725.576966	955.815240	-421.017266	-129.011049	1209.359778	-153.362968	-5.981164	1272.129398	-362.453155	68.813388	1236.354229	1.082965	38.191665	1193.167744	-327.416485	86.703141	1168.315364	-50.254666	-90.677485	1256.700176	-109.100300	-105.101026	1265.933929	-185.726455	3.099960	1109.411162	8.680918	-30.038137	1188.804186	-380.463393	90.131038	972.728652	18.262845	164.238751	923.067027	19.102154	205.516317	847.764331	9.746012	190.930439	947.603541	11.223333	266.973857	737.129910	-22.972780	276.722009	727.089811	-142.685853	201.190713	582.609322	-4.803412	189.784396	495.903018	-24.200117	136.354699	425.985532	-30.350576	218.636595	488.376937	-48.548007	77.482900	310.442464	-60.890082	9.655764	295.879167	-100.452771	285.085313	151.912482	-111.192375	171.131110	185.932964	-38.932987	202.700699	195.365013	-151.239835	95.176620	1117.602181	-426.196662	179.904388	1108.284585	-440.529201	194.814176	1139.644719	-427.781469	250.408406	1054.926980	-454.402577	386.216646	1010.223044	-454.452906	403.561668	992.870453	-323.673283	315.502661	850.129375	-463.814326	305.418197	766.728275	-443.155313	250.930791	695.404635	-433.543975	337.216853	756.812232	-424.094190	201.591219	576.531247	-409.844975	134.952895	532.179749	-359.523043	442.830242	506.637214	-352.695408	348.179405	508.654108	-311.401735	324.263916	487.323010	-424.401389	-217.278777	945.793331	-228.128029	-8.197258	85.086761	-436.212188	-13.844641	80.922021	-35.872209	
1253	6.2650	487.640834	1380.278140	-142.876832	392.293319	1395.892512	-431.779110	383.151994	1481.482024	-267.958140	372.360483	1305.488311	-277.043737	540.182144	1144.046620	3.570497	742.533633	935.977121	-34.265571	480.009995	1148.625362	-487.561400	725.436577	955.982879	-420.832658	-128.291558	1208.764057	-155.210576	-6.115652	1272.132075	-363.283889	68.045912	1235.996326	0.327286	37.955533	1192.756758	-328.612290	85.891216	1168.438775	-51.092186	-91.219920	1256.993962	-109.964601	-105.229485	1265.680243	-186.657033	2.960040	1109.826645	8.219750	-30.259222	1187.100472	-381.109116	91.440889	974.286681	16.995708	166.195350	925.869682	17.999903	208.433941	851.095340	9.065496	192.610096	950.473883	9.927745	270.503328	740.777354	-22.391554	280.802517	730.503938	-142.305114	201.537759	587.335293	-4.532093	188.622871	501.305563	-23.458277	132.935313	432.371689	-30.247439	217.438115	493.167765	-47.542648	71.634614	318.312654	-60.834534	3.557268	304.846872	-100.762061	276.033237	155.227727	-111.083770	162.780914	191.697756	-39.006966	194.392854	200.186007	-151.632825	95.065906	1113.489815	-426.516109	179.657142	1103.213821	-440.986157	194.849998	1134.649736	-428.811853	249.648717	1049.054238	-454.143493	385.071801	1003.067922	-453.893439	402.046708	985.946914	-323.461538	316.395007	841.559198	-463.703407	307.533090	757.895204	-443.144540	254.165996	685.768184	-433.671299	339.395115	748.529690	-423.955987	207.045680	565.954591	-410.408423	141.085984	519.672388	-360.526404	449.787874	504.412660	-352.814440	355.047054	503.376908	-312.286124	331.900983	481.579822	-426.810413	-217.292175	945.783563	-228.121990	-8.214480	85.038843	-436.233432	-13.854457	80.922400	-35.851454	
1254	6.2700	487.429958	1379.797618	-142.927955	392.326736	1396.190688	-431.660846	383.155885	1481.276461	-267.637193	372.312724	1305.313629	-277.223301	540.419239	1143.593515	3.390707	742.508992	935.752607	-34.226203	479.706161	1148.611251	-486.975529	725.322634	956.021993	-420.601270	-128.584173	1208.482344	-156.082684	-6.051868	1271.796825	-364.317966	67.266380	1235.596631	-0.530470	37.789155	1192.241096	-329.957252	85.198446	1168.492067	-51.909912	-91.727380	1256.845306	-110.986460	-105.268741	1265.288772	-187.784627	2.782026	1110.180105	7.671662	-30.263961	1185.156140	-381.972380	92.941235	976.200316	15.865629	168.209302	928.822804	16.777754	211.410402	854.617373	8.237609	194.215043	953.811377	8.897662	274.260652	744.598964	-21.890546	284.656293	733.997675	-142.085758	202.193960	592.329162	-4.306936	187.219675	506.636808	-23.344032	129.956536	439.147785	-30.276101	214.623479	497.887272	-48.120583	66.162467	326.437669	-60.844358	-2.161089	314.130533	-101.191997	267.393962	159.119606	-111.007450	154.826786	197.896311	-39.123575	186.664759	205.527109	-151.768479	94.998715	1109.243363	-427.607700	179.510202	1097.596391	-441.472181	195.340138	1129.443752	-431.328333	248.854747	1042.418086	-453.915326	383.435360	994.907122	-453.355967	400.530752	978.116111	-323.479639	317.133728	831.954063	-463.809594	309.551521	748.209107	-443.164538	257.346100	675.138165	-433.923702	341.409346	739.299877	-423.707279	212.298849	554.565530	-410.859301	147.086173	506.409950	-361.488107	456.289916	501.551297	-352.956832	361.607459	497.004309	-312.451730	339.407595	474.855381	-428.401142	-217.289277	945.743629	-228.143790	-8.247714	84.963357	-436.186797	-13.863082	80.910609	-35.845645	
1255	6.2750	487.186543	1379.515243	-142.788707	392.555993	1396.492029	-431.420187	383.173364	1481.060963	-267.231655	372.472871	1305.114060	-277.240019	540.599193	1143.330968	3.400980	742.394391	935.651371	-34.188570	479.533504	1148.515994	-486.290803	725.266247	955.951273	-420.352885	-128.889514	1208.141824	-157.403500	-5.782175	1271.236881	-365.508438	66.475943	1235.092393	-1.537561	37.696472	1191.624526	-331.446309	84.438220	1168.534299	-52.851850	-92.295224	1256.587015	-112.170354	-105.367521	1264.798762	-189.139090	2.573657	1110.464238	6.974041	-30.143953	1183.033037	-382.947658	94.415824	978.107626	14.788410	170.337256	931.815892	15.460336	214.595360	858.155137	7.318951	195.963035	957.010309	7.686036	278.192676	748.457282	-21.400588	288.471547	737.584922	-141.853799	203.130626	597.576781	-4.127552	186.199417	512.199339	-23.277729	127.393379	446.088835	-30.359064	213.391867	502.687044	-48.068650	61.166121	334.898207	-61.169407	-7.622065	324.402049	-101.061171	259.011980	163.542662	-111.021128	147.267665	204.747327	-39.248697	179.315275	211.778211	-151.868888	95.076181	1104.630176	-428.548127	179.405693	1091.522307	-442.166990	195.687260	1123.392140	-432.543027	247.935814	1035.201862	-453.774157	381.463569	985.679676	-452.844326	399.013569	969.526897	-323.524837	317.588932	821.490324	-464.160219	311.455954	737.665939	-443.244965	260.322591	663.690076	-434.316456	343.229143	729.465515	-423.564031	217.529401	542.552277	-411.442909	153.272287	492.542520	-362.052534	462.329716	497.996715	-353.281837	367.930777	490.145062	-313.108516	346.502753	466.868707	-429.046881	-217.284663	945.692477	-228.257354	-8.253366	84.938853	-436.155579	-13.858900	80.901986	-35.841986	
